<?xml version="1.0" encoding="utf-8"?>
<!-- Generator: Adobe Illustrator 28.0.0, SVG Export Plug-In . SVG Version: 6.00 Build 0)  -->
<svg version="1.1" id="Capa_1" xmlns="http://www.w3.org/2000/svg" xmlns:xlink="http://www.w3.org/1999/xlink" x="0px" y="0px"
	 viewBox="0 0 131.1 150" style="enable-background:new 0 0 131.1 150;" xml:space="preserve">
<style type="text/css">
	.st0{fill:#9E804C;}
</style>
<path class="st0" d="M64.7,27.8c0-0.5,0.4-0.8,0.8-0.8c0.5,0,0.8,0.4,0.8,0.8c0,0.5-0.4,0.8-0.8,0.8C65.1,28.6,64.7,28.2,64.7,27.8z
	 M47.2,131.5c-1.4-1.5-3-2.8-4.7-3.8c-0.9-0.6-1.8-1-2.7-1.2c-0.7-0.3-1.5-0.5-2.2-0.8c-1.6-0.6-2.9-1.1-3.5-1.5
	c-0.7-0.4-1.6-1.1-2.7-2.2c-1.9-1.8-3.1-3.7-2.6-4.4c0.4-0.5,1.7-0.1,3.4,0.9c1.7,1,3.7,2.6,5.6,4.3c0.1-0.1,0.2-0.1,0.4-0.2
	c-1.3-1.4-2.6-2.8-4-4.3c-1.5-1.6-3-3.2-4.6-4.9c-0.1,0.1-0.2,0.3-0.3,0.4c0.9,1.1,1.3,1.7,1.1,1.9c0,0.1-0.6,0-1.3,0
	c-0.6,0-1.3,0.1-1.7,0.5c-0.6,0.8,0,2.3,1.2,4c1.1,1.6,2.7,3.3,4.3,4.8c1.4,1.3,2.7,2.3,3.8,3c0.6,0.4,1.2,0.7,1.9,1.1
	c0.7,0.3,1.4,0.6,2.2,1c0.6,0.2,1.1,0.4,1.7,0.6c1,0.3,1.8,0.7,2.3,1c0.7,0.4,1.5,1,2.2,1.7c1.2,1.2,2,2.6,0.8,2.7
	c-0.6,0.1-1.5-0.2-2.6-0.9c-1.2-0.7-2.7-1.8-4.8-3.5c-0.1,0-0.2,0-0.3,0.1c1,1,2,1.9,3,2.8c0.9,0.9,1.8,1.7,2.7,2.5
	c0.1,0,0.2,0,0.3,0c-0.4-0.5-0.6-0.7-0.4-0.7c0.1,0,0.2,0,0.4,0.1c0.1,0,0.2,0.1,0.3,0.1c0.8,0.3,1.5,0.4,2,0.4
	c1.2-0.1,1.5-0.8,1.2-1.7C49.5,134.2,48.5,132.8,47.2,131.5z M49.6,30.8c0.5,0,0.8-0.4,0.8-0.8c0-0.5-0.4-0.8-0.8-0.8
	c-0.5,0-0.8,0.4-0.8,0.8C48.7,30.4,49.1,30.8,49.6,30.8z M52.5,44.3l4.4-0.9c0.8-0.2,1.3-0.8,1.2-1.4c-0.1-0.6-0.9-0.9-1.7-0.8
	l-4.4,0.9c-0.8,0.2-1.3,0.8-1.2,1.4C51,44.1,51.7,44.4,52.5,44.3z M68.9,41.1l-3.2-1.5l-3.3,1.5l3.2,1.2L68.9,41.1z M111.7,127.7
	l16.9,17.3l-6,4l-16.7-17.1c-36.1,26.9-52,15.9-52,15.9c-8.1-9.1-16.8-13.7-16.8-13.7c-5.8-1.2-10-8.8-10-8.8
	c-5.8-10.9-17.5-18.1-17.5-18.1c-2.6-1.3-4.1-8-4.1-8c-5.2-10.1-4-15.4-4-15.4c0.3-4.9,2.1-9.7,2.2-14.8c0,0,0-0.1,0-0.1
	c0-0.2,0-0.4,0-0.6c0-0.1,0-0.1,0-0.2c0-0.2,0-0.3,0-0.5c0-0.1,0-0.2,0-0.2c0-0.1,0-0.3,0-0.4c0-0.1,0-0.2,0-0.3c0-0.1,0-0.3,0-0.4
	c0-0.1,0-0.2,0-0.3c0-0.1,0-0.3,0-0.4c0-0.1,0-0.2-0.1-0.4c0-0.1,0-0.2-0.1-0.4c0-0.1-0.1-0.3-0.1-0.4c0-0.1,0-0.2-0.1-0.3
	c0-0.2-0.1-0.3-0.1-0.5c0-0.1,0-0.2-0.1-0.3c-0.1-0.2-0.1-0.5-0.2-0.7c-3-10.9-0.6-24.7,2-35.3c-0.5-0.3-1.4-0.2-2-0.4
	c-1.2-0.3-2.1-1.5-2.7-2.5c-0.6-2.5,1.5-4.2,2.9-6C4.5,17,6.4,15,9,15.7c0.9,0.4,1.8,1.2,2.3,2.1c0.6,1.7,0.1,3.4-1,4.7L41.3,56
	c0.1-0.1,0.2-0.1,0.2-0.2c0.2-0.2,0.4-0.3,0.6-0.5c0.1-0.1,0.2-0.2,0.4-0.2c0.2-0.2,0.5-0.3,0.8-0.5c0.1-0.1,0.2-0.1,0.2-0.2
	c0.3-0.2,0.7-0.4,1-0.6c0.1-0.1,0.2-0.1,0.3-0.2c0.3-0.2,0.5-0.3,0.8-0.5c0.1,0,0.1-0.1,0.2-0.1l-0.2,0c-0.8-0.8-1.5-1.9-1.4-3.1
	c0.1-0.9,0.6-1.8,1.2-2.4c-0.5-0.5-1.8-0.3-2.5-0.7l1.4-3.2c-1.2-0.2-2.4-0.3-3.3-1.2c-0.4-1.3-1.5-2.1-2.7-2.4
	c-1.7-0.6-4.4,0.8-4.9-1.8c-0.2-0.9-0.3-2.2,0.4-3c-0.6-0.9-1.2-1.9-1.1-3.1c0.1-0.7,0.3-1.4,0.7-2c-0.6-1-0.8-2.3-0.5-3.5
	c0.2-0.6,0.6-1.1,1.1-1.5c-0.3-1-0.3-2.3,0.3-3.1c0.5-0.8,1.4-1.2,2.2-1.5c0.1-1.4,0.7-3,2.1-3.4c0.5-0.2,1-0.3,1.5-0.3
	c0.4-1,0.7-2.2,1.8-2.8c1.2-0.6,2.8-0.4,3.9,0.3c0.2-0.9,0.5-1.9,1.1-2.7c0.8-0.8,1.9-0.9,3.1-0.8c1.1,0.2,1.9,1.1,2.5,2
	c0.9-0.9,2.3-1.4,3.5-1c0.6-0.8,0.6-2,1.8-2.5c1-0.7,2.6-0.7,3.7,0.1c0.9-0.5,1.7-1.1,2.6-1.4V6.5h-3V3.8H64V0h2.6v3.8h2.9v2.6h-2.9
	v1.5c1.3,0.4,2.3,1.6,2.6,2.9c1-0.8,2.6-1.8,4.1-1.2c0.9,0.3,1.7,1.1,2,2c1.2,0.1,2.8-0.1,3.7,1c0.7-0.5,1.4-1.1,2.2-1.5
	c1.3-0.2,2.7-0.2,3.6,0.9l0.7,1.1c1.1-0.3,2.4-0.2,3.3,0.5c0.9,0.6,1,1.7,1.4,2.6c1.1-0.2,2.3-0.1,3.1,0.7c0.8,0.8,0.9,1.9,1,3
	c0.9,0.2,1.9,0.8,2.4,1.7c0.4,0.8,0.3,1.8,0.2,2.7c0.9,0.6,1.7,1.6,1.7,2.8c0.3,1.5-1.7,2.5,0,3.8c0.4,1.5-0.2,2.8-1.2,3.8
	c0.5,1.5,0.1,3.3-1.1,4.3c-0.7,0.7-2,0.1-2.9,0.5c-1.3,0.1-2.8,0.6-3.3,1.9c-0.5,1.1-1.7,1.8-2.9,1.8l1.3,3.3L86,47.1
	c0.9,0.9,1.3,2.5,0.9,3.9c-0.2,0.6-0.6,1.1-1.2,1.6c6.5,3.4,11.9,8.4,15.8,14.5c0,0,0,0,0,0.1c0.5,0.8,1,1.6,1.5,2.4
	c0,0.1,0.1,0.1,0.1,0.2c0.1,0.2,0.3,0.5,0.4,0.8c0,0.1,0.1,0.2,0.1,0.3c0.2,0.5,0.5,0.9,0.7,1.4c0,0.1,0.1,0.2,0.1,0.3
	c0.1,0.2,0.2,0.4,0.3,0.7c0.1,0.2,0.1,0.3,0.2,0.5c0.1,0.2,0.2,0.4,0.3,0.6c0.1,0.2,0.2,0.4,0.3,0.7c0.1,0.3,0.2,0.6,0.3,0.8
	c0.1,0.2,0.2,0.4,0.2,0.7c0.1,0.2,0.1,0.4,0.2,0.6c0.1,0.2,0.2,0.5,0.2,0.7c0,0.2,0.1,0.3,0.1,0.5c0.1,0.4,0.2,0.8,0.3,1.1
	c0,0.1,0.1,0.3,0.1,0.4c0.1,0.3,0.1,0.6,0.2,0.8c0,0.1,0.1,0.3,0.1,0.4c0.1,0.4,0.2,0.8,0.2,1.2c0,0.1,0,0.1,0,0.2
	c0.1,0.4,0.1,0.7,0.2,1.1c0,0.1,0,0.3,0.1,0.4c0,0.3,0.1,0.7,0.1,1c0,0.1,0,0.2,0,0.3c0,0.4,0.1,0.9,0.1,1.3c0,0.1,0,0.2,0,0.3
	c0,0.3,0,0.7,0.1,1c0,0.1,0,0.3,0,0.4c0,0.4,0,0.9,0,1.3c0,2.5-0.2,5-0.7,7.4c1.7,1.1,6.5,4.5,9.6,8c4.3,5,14,14.3,14,14.3
	C126.7,120.5,120.6,122.6,111.7,127.7z M88.2,105.7c-11,4.9-20.2,14.2-31.9,17.4l2.1,4.3c6.3-1.5,12-4.4,17.7-7.4
	c12-7.3,24.3-14.9,39.1-15.4c-1.3-1.3-2.4-2.2-3.7-3.3C103.2,100,95,102.2,88.2,105.7z M38,73.2c-4.6,1.7-7.6,4.1-11,7.7l-0.3,0.8
	c-0.5,2.6-0.8,5.2-0.8,7.9c0,5.9,1.3,11.5,3.6,16.6l0.1,0.3c1.8,0,10.9-0.5,21.5-7.6L51,98.8c-2.1-1.8-4-3.4-5.6-5.5
	C44.2,92.6,36.4,82.1,38,73.2z M57.3,64.3c-6,0.7-11.5,2.7-15.7,6.8c-1.8,1.9-2.4,4.5-2,7.2c1.5,7.9,7,14.4,13.3,19.4
	c6.4-5.8,12.7-9.5,18.2-11.8l-0.2-0.1c-3.4-3-6.4-5.7-8.8-9.6C59.5,72.9,57.1,69,57.3,64.3z M44.1,112.1l5.2,3.3
	c3.2-1,6.3-2.7,9.3-4.4c12.7-8.3,25.4-18.5,42.1-16.8c-1.7-1.1-3.1-2.6-4.7-3.8c-6.6-0.2-13.5,1-19.3,2.9
	c-8.8,2.3-15.7,9.2-23.7,13.7C50.1,108.8,46.6,110.3,44.1,112.1z M100.5,68.5c-2.5,5.2-6.2,10.1-10.7,14.1C91.7,84.9,98,92,106,96.3
	L106,96c0.3-2.1,0.5-4.2,0.5-6.3C106.5,81.9,104.3,74.7,100.5,68.5z M94.3,61c-0.7,5.6-3.7,11-8,15.1H86C81.6,71.9,76.8,68,72,64.8
	c-1.5-0.9-3.1-1.8-4.5-2.8c2.7-4.5,6.4-8.5,11.3-10.4c-2.4-0.8-5-1.4-7.5-1.7c-3,1.3-6,3.9-8.1,6.6c-1.8,3.3-4.9,6.5-3.8,10.7
	c2.1,7.2,7.3,13.1,12.9,17.8c7.3-2.9,13-3.2,15.4-3.1c5.2-4.2,9.2-9.8,11.5-15.2C99.2,66.7,95.7,61.7,94.3,61z M82.4,50.9
	c0.7,0.1,1.4-0.1,1.8-0.7c0.3-0.7,0.1-1.5-0.5-1.9c-8.5-3.8-20-4.7-29.3-2.1c-2.4,0.9-5,1.4-7.2,2.9c-0.5,0.5-0.2,1.3,0.2,1.8
	c0.3,0.6,1.2,0.5,1.7,0.5C58.9,46.6,72.5,46.7,82.4,50.9z M88.1,60.1c-1.2,0.6-1.2-1.3-2.3-1.2c-0.4,0.6-1,1.1-1.2,1.8
	c0.6,0.6,1.2,1,1.9,1.3c0.3,0.5,0.2,1.1-0.2,1.5c-1.4,0.8-1.7-1.1-2.9-1.4c-0.5,0.7-1.4,1.5-1.7,2.4c0.8,0.6,1.4,1.5,2.4,1.8
	c0.6,0.2,0.8,1,0.6,1.6c-1.8,2.3-2.7-1.5-4.5-1.6C80,67,79.4,67.3,79.2,68c2.5,2,4.4,3.8,6.8,5.6c3.9-3.8,6.4-8.5,6.9-14
	c-1.6-1.4-3.1-2.7-5-3.7l-1.2,1.8c0.5,0.7,1.3,0.5,1.7,1.2C88.6,59.3,88.4,59.8,88.1,60.1z M81.7,52.7c-3.5,0.8-6.4,2.8-9,5.4
	c-0.9,1.1-2.2,2.2-2.7,3.5c1.2,0.8,2.5,1.4,3.5,2.4c1.3,0.8,2.8,1.7,4,2.7c0.6,0.1,1.2-0.9,1.5-1.5c-0.9-0.9-2.1-1.6-3.1-2.4
	c-0.2-0.6-0.1-1.1,0.4-1.6c0.4-0.4,0.9-0.2,1.4,0c0.9,0.7,1.6,1.6,2.7,2.2l1.7-2.2c-0.7-1.2-2.5-1-2.7-2.5c1.3-2.7,2.4,1,3.9,0.8
	c0.4-0.6,1-1.1,1.2-1.8l-1.7-1c-0.4-0.4-0.2-1,0.3-1.4c1.2-0.7,1.2,1.2,2.3,1.2c0.4-0.5,0.7-1,1-1.6C84.8,54.1,83.4,53.3,81.7,52.7z
	 M95.3,30.1c-1,0-1.9,0.8-1.9,1.9c0,1,0.8,1.9,1.9,1.9c1,0,1.9-0.8,1.9-1.9C97.2,31,96.4,30.1,95.3,30.1z M95,25.5
	c-1,0-1.9,0.8-1.9,1.9c0,1,0.9,1.9,1.9,1.9c1,0,1.9-0.8,1.9-1.9C96.9,26.4,96.1,25.5,95,25.5z M92,23.3c0,1,0.8,1.9,1.9,1.9
	c1,0,1.9-0.8,1.9-1.9c0-1-0.8-1.9-1.9-1.9C92.9,21.4,92,22.2,92,23.3z M89.3,19.3c0,1,0.8,1.9,1.9,1.9c1,0,1.9-0.8,1.9-1.9
	c0-1-0.8-1.9-1.9-1.9C90.1,17.4,89.3,18.2,89.3,19.3z M85.3,16.4c0,1,0.8,1.9,1.9,1.9c1,0,1.9-0.8,1.9-1.9c0-1-0.8-1.9-1.9-1.9
	C86.1,14.5,85.3,15.4,85.3,16.4z M80.6,14.1c0,1,0.9,1.9,1.9,1.9c1,0,1.9-0.8,1.9-1.9s-0.8-1.9-1.9-1.9C81.5,12.2,80.6,13,80.6,14.1
	z M80.4,17.2c0.6,0.7,1.5,2.2,0.7,4.4c0,0,1.8,0.9,1.1,3.4c0,0,1.7,0.4,2.6,2.8c0,0,3.2,2.8-0.9,5.1c0,0,2,2.1,6.2,2.2
	c0,0-0.2-2.1,2.1-1.7c0,0-0.9-2.2,0.3-3.8c0,0-0.9-1-0.7-3.4c0,0-2.2-1.7-1.5-3.4c0,0-2.7-0.6-2.8-2.9c0,0-3.5-0.4-4-2
	C83.5,17.8,81.6,18,80.4,17.2C80.4,17.2,80.2,17.1,80.4,17.2z M79.8,22.7c-0.8,0-1.5,0.7-1.5,1.5c0,0.8,0.7,1.5,1.5,1.5
	c0.8,0,1.5-0.7,1.5-1.5C81.3,23.4,80.7,22.7,79.8,22.7z M78.1,18.2c-1,0-1.9,0.8-1.9,1.9s0.8,1.9,1.9,1.9c1,0,1.9-0.8,1.9-1.9
	S79.2,18.2,78.1,18.2z M74.5,15.7c0,1,0.8,1.9,1.9,1.9c1,0,1.9-0.8,1.9-1.9c0-1-0.8-1.9-1.9-1.9C75.3,13.8,74.5,14.6,74.5,15.7z
	 M70,12.7c0,1,0.8,1.9,1.9,1.9c1,0,1.9-0.8,1.9-1.9s-0.8-1.9-1.9-1.9C70.8,10.8,70,11.6,70,12.7z M67.5,15.1
	c0.7,0.3,0.4,1.3,0.4,1.3c4.5,1,1.8,5,1.8,5c3.3,3-0.2,4.9-0.2,4.9c0.7,2.4-0.6,3.6-0.6,3.6c4.4,2.7,8.6,0.7,8.6,0.7
	c-1.5-2.4,1.1-4.2,1.1-4.2c-2.2-0.9-1.8-3.2-1.8-3.2c-3.2-1.2-2.2-4.6-2.2-4.6c-1.9-0.8-1.8-2.7-1.8-2.7c-3.4,0.2-3.7-2-3.7-2
	C68.8,14.7,67.5,15.1,67.5,15.1z M64.7,21c0,0.5,0.4,0.8,0.8,0.8c0.5,0,0.8-0.4,0.8-0.8c0-0.5-0.4-0.8-0.8-0.8
	C65.1,20.2,64.7,20.6,64.7,21z M65.6,17.7c0.5,0,0.8-0.4,0.8-0.8c0-0.5-0.4-0.8-0.8-0.8c-0.5,0-0.8,0.4-0.8,0.8
	C64.7,17.3,65.1,17.7,65.6,17.7z M66.4,24.2c0.6,0.4,1.1,1,1.6,1.4c0.6,0,1-0.3,1.3-0.8c0.3-0.5,0.1-1.2-0.2-1.6
	c-0.5-0.3-0.9-0.7-1.5-0.6C67.4,23.4,66.2,23.2,66.4,24.2z M67.8,19.5c0.3,0.4,0.3,1,0.7,1.1c0.6-0.3,0.9-0.9,0.9-1.7
	c-0.3-0.4-0.6-1.1-1.4-1.1C67.9,18.4,66.7,19,67.8,19.5z M63.6,12.1c0,1,0.8,1.9,1.9,1.9c1,0,1.9-0.8,1.9-1.9c0-1-0.8-1.9-1.9-1.9
	C64.4,10.2,63.6,11.1,63.6,12.1z M62.8,22.7c-0.6,0.3-1.1,0.9-1,1.6c0.2,0.6,0.6,1,1.2,1.2c0.4-0.7,1.1-1.1,1.7-1.4
	C64.4,23.5,63.6,22.6,62.8,22.7z M62.3,18.2c-0.3,0.4-0.8,0.8-0.5,1.4c0.1,0.4,0.6,0.9,1,1c0.1-0.6,0.4-1.1,0.8-1.6
	C63.1,18.7,63.2,17.1,62.3,18.2z M57.9,12.7c0,1,0.8,1.9,1.9,1.9c1,0,1.9-0.8,1.9-1.9s-0.8-1.9-1.9-1.9
	C58.8,10.8,57.9,11.6,57.9,12.7z M55.9,18.9c0.8,3.5-2.4,4.3-2.4,4.3c0.5,2.5-1.6,3.5-1.6,3.5c3.6,1.6,1.7,4.5,1.7,4.5
	c5.6,1.7,8.7-1,8.7-1c-2.1-1.5-0.7-4.1-0.7-4.1c-2.9-2.8,0.2-4.7,0.2-4.7c-3.6-3.6,1.2-5.1,1.2-5.1c-0.1-0.7,0.5-1.4,0.5-1.4
	c-0.3-0.2-0.7-0.5-0.7-0.5c0,0,0,0.1,0,0.1c-1.5,2.7-4.7,1.4-4.7,1.4C58.1,18.2,55.9,18.9,55.9,18.9z M52.6,24.2
	c0-0.8-0.7-1.5-1.5-1.5c-0.8,0-1.5,0.7-1.5,1.5c0,0.8,0.7,1.5,1.5,1.5C51.9,25.7,52.6,25.1,52.6,24.2z M53,15.7c0,1,0.8,1.9,1.9,1.9
	c1,0,1.9-0.8,1.9-1.9c0-1-0.8-1.9-1.9-1.9C53.8,13.8,53,14.6,53,15.7z M51,20c0,1,0.8,1.9,1.9,1.9c1,0,1.9-0.8,1.9-1.9
	c0-1-0.8-1.9-1.9-1.9C51.9,18.1,51,19,51,20z M47.3,14.1c0,1,0.8,1.9,1.9,1.9c1,0,1.9-0.8,1.9-1.9s-0.8-1.9-1.9-1.9
	C48.1,12.2,47.3,13,47.3,14.1z M43.4,20.6c-0.3,2.7-2.7,3.2-2.7,3.2c0.2,1.6-1,2.7-1,2.7L39.2,34c2.2-1.3,3,0.9,3,0.9
	c1.8-0.3,3.8-2.6,3.8-2.6c-1.8-2.8,0.7-4.3,0.7-4.3c-0.1-1.2,1.9-2.1,1.9-2.1c-1.3-2.8,1-4.3,1-4.3c-1-2.1,0.4-4.1,0.4-4.1
	c-1.4,0.2-2.6-0.5-2.6-0.5C47.2,20.6,43.4,20.6,43.4,20.6z M41.8,17.3c0,1,0.8,1.9,1.9,1.9c1,0,1.9-0.8,1.9-1.9c0-1-0.8-1.9-1.9-1.9
	C42.7,15.5,41.8,16.3,41.8,17.3z M37.8,20.2c0,1,0.9,1.9,1.9,1.9c1,0,1.9-0.8,1.9-1.9c0-1-0.9-1.9-1.9-1.9
	C38.7,18.3,37.8,19.2,37.8,20.2z M35.6,24.3c0,1,0.8,1.9,1.9,1.9c1,0,1.9-0.8,1.9-1.9c0-1-0.8-1.9-1.9-1.9
	C36.4,22.4,35.6,23.2,35.6,24.3z M34.6,28.3c0,1,0.8,1.9,1.9,1.9c1,0,1.9-0.8,1.9-1.9c0-1-0.8-1.9-1.9-1.9
	C35.4,26.4,34.6,27.3,34.6,28.3z M36.1,34.6c1,0,1.9-0.8,1.9-1.9c0-1-0.8-1.9-1.9-1.9c-1,0-1.9,0.8-1.9,1.9
	C34.2,33.7,35,34.6,36.1,34.6z M41.5,37.7c3.3-0.2,6.7-2.4,8-5.6l0.4-0.1c1.1,0.7,2.3,1.3,3.5,1.7c4.1,1.1,8.5,0.1,11.7-2.4
	c0.8-1.5,1.7,0.1,2.5,0.4c3.7,2.4,9,2.7,13,0.6c0.4,0.8,0.9,1.6,1.6,2.3c2.6,2.6,6.4,3.9,10,2.7c0.7-0.2,1.2-0.9,2.1-0.7
	c0.4-0.2,1.2-0.2,1.1-0.9c-0.5-0.5-1.2,0.1-1.7-0.2c-0.8-0.1-1.3-1.1-2.1-0.7c-0.5,0.4,0,0.9-0.2,1.4c-1.8,0.4-3.9,0.1-5.6-0.6
	c-1.7-0.8-3.7-2.4-3.8-4.2c0.4,0,0.7,0.2,1.2,0.4c0.7,0.2,1.4-0.1,1.8-0.7c0.3-0.6,0.2-1.5-0.5-1.9c-1.9,0,0.1-2.1-1.7-2.5
	c-0.6-0.2-1.3,0-1.7,0.5c-0.1,1-1.1,0.4-1.7,0.7c-0.7,0.3-1.1,1-0.9,1.7c0,0.9,1.6,0.7,1.1,1.6c-2.7,1.9-6.8,2.1-9.7,0.5
	c-0.8-0.5-1.8-1-2.2-2c0.1-0.2,0.3-0.1,0.4-0.2c0.6-0.3,1.1-0.9,0.9-1.7c-0.1-1-1.5-0.9-1.8-1.7c-0.3-0.5-0.9-1.1-1.7-0.9
	c-0.5,0.2-1.2,0.4-1.2,1c-0.2,0.9-1.7,0.2-1.9,1.4c-0.3,0.7,0.1,1.5,0.7,1.9c0.4,0.3,1.4-0.1,1.4,0.6c-0.8,0.8-1.6,1.6-2.6,2
	c-3.1,1.8-7.7,1.3-10.5-0.7l1-0.2c0.7-0.3,1-1.1,0.9-1.8c-0.3-1-1.4-1-2.2-1.1c-0.2-0.5-0.6-1-1.2-1.1c-0.6-0.3-1.3,0.1-1.7,0.6
	c-0.4,0.4,0.3,1.7-0.7,1.6c-0.8,0.3-0.8,1.1-1,1.7c0.1,0.6,0.8,0.9,1,1.4c-1.2,2.4-3.6,3.7-6.1,4c-0.7-0.3,0.1-1.1-0.5-1.5
	c-0.9-0.3-1.5,0.5-2.2,0.8c-0.6,0.3-1.4-0.4-1.9,0.3c-0.2,0.4-0.3,0.8,0.1,1.1C38.2,37.5,39.7,38,41.5,37.7z M44.7,41.5
	c9.9-4.2,21.8-5.6,32.9-3.2c2.8,0.8,5.8,1.3,8.1,2.9c0.8,0.3,1.5-0.1,1.9-0.7c0.4-0.6,0.1-1.4-0.4-1.9c-12.2-6.2-28.6-5.7-41.2-1
	c-1,0.6-3,0.8-2.8,2.6C43.6,40.7,44,41.5,44.7,41.5z M48.1,43.6l0.8,0.1l0,0l0.1,0L46.6,47c7.5-3.6,17.1-5,26-3.8
	c-0.5-0.3-0.8-0.7-0.7-1.2c0.1-0.6,0.9-1,1.7-0.8l4.4,0.9c0.8,0.2,1.3,0.8,1.2,1.4c-0.1,0.4-0.4,0.7-0.9,0.8
	c2.2,0.6,4.3,1.3,6.3,2.2c-0.5-0.8-1.4-1.7-1.8-2.6c0.9-0.6,2.3-0.5,3.3-0.9c-11.9-5.4-29.1-5.5-40.7,0.4l0,0l0,0c0,0,0,0,0.1,0
	L48.1,43.6z M27.7,77.7L27.5,78c3.8-3.7,8-6.5,12.8-8.2c5-4.3,10.9-6.9,17.4-7.5c2-5.1,5.7-9.9,10.6-12.8c-0.7,0-1.4,0-2.1,0
	C48.1,49.5,32.8,61.4,27.7,77.7z M5.8,24.9c4.3,4.7,31,33.2,31.2,33.5l0.2,0.2l2.3-1.9L7.7,22.9c0.1-0.1,0.2-0.3,0.4-0.4
	c0.6-0.6,1.4-1.4,1.3-3l0-0.1c-0.5-1.3-1.4-1.6-2-1.6l0,0l0,0c-0.9,0.1-3,1.9-4.2,3.6c-0.7,0.9-1,1.7-0.8,2.4
	c0.4,1.1,1.3,1.5,2.1,1.8l0.2,0C5.1,25.5,5.5,25.1,5.8,24.9z M29.6,69.2c0.4-0.6,0.7-1.2,1.1-1.8c1.2-1.8,2.5-3.6,3.9-5.2
	c0.5-0.6,1.1-1.3,1.7-1.9L6.6,28.8C9.9,43.6,19.8,57.3,29.6,69.2z M23.1,105.7c-2.3-3.5-3.6-8-4.5-12.1c-1.5-6.6,0.3-13.4,0.2-20.2
	c-0.6-5.5-1.9-11.5-0.3-16.9c-2.3-3.4-4.4-7.1-6.6-10.6c-0.5,3.7-0.7,7.9-0.2,11.6c1.9,5.8,2.3,12.8,1.7,19.1
	c-1.2,8.4-4.2,20.5,3.5,26.7C18.9,104.1,20.9,105.3,23.1,105.7z M59.1,137.1c0-14.6-11.9-26.5-26.6-26.5c-4.6,0-8.9,1.2-12.6,3.2
	c2.7,2.7,5.8,6.5,8.3,11.2c0,0,4.9,7,10.5,8.1c0,0,8.4,4.7,15.6,13.8c0,0,0.8,0.5,2.5,1C58.3,144.7,59.1,141,59.1,137.1z
	 M125.4,115.3c-1.5-1.6-3.1-3.1-4.5-4.7c-7.7,0.5-14.1,3.4-20.6,6.9c-12.6,7.9-25.6,15.9-40.2,19c0.1,2.1-0.3,4.1-0.5,6.1
	c10.6,0,19.8-5,28.5-10.2C99.5,124.5,110.7,115.6,125.4,115.3z M110,129.2l-2.4,1.7l0.3,0.3c3.5,3.6,13.4,13.4,14.7,14.6l0.2,0.2
	l0.2-0.1c0.1-0.1,0.3-0.2,0.4-0.2c0.6-0.3,1.1-0.6,1.5-1.1l0.2-0.2L110,129.2z M47.4,122.6c-0.6-0.3-1.2-0.6-1.9-0.8
	c-0.7-0.2-1.5-0.4-2.4-0.5c-1.2-0.2-2-0.3-2.5-0.5c-0.6-0.2-1.1-0.5-1.6-0.8c-0.4-0.3-0.7-0.6-1.1-1c-1.2-1.2-1.9-2.7-1.3-3.3
	c0.4-0.4,1.2-0.3,2.3,0.2c1.1,0.5,2.5,1.4,4.1,2.7c0-0.1,0.1-0.1,0.1-0.2c-1-0.9-2-1.9-2.9-2.8c-0.9-0.9-1.9-1.8-2.8-2.6
	c0,0-0.1,0.1-0.1,0.1c1,1.1,1,1.3,0.9,1.4c-0.2,0.2-1.3-0.1-1.9-0.1c-0.3,0-0.6,0.1-0.8,0.3c-0.6,0.5-0.5,1.5,0,2.8
	c0.6,1.3,1.6,2.9,3.1,4.4c0.8,0.9,1.8,1.7,2.6,2.3c0.9,0.6,1.7,1.1,2.6,1.4c0.9,0.4,2,0.6,3.4,0.8c1,0.1,1.7,0.2,2.3,0.5
	c1.1,0.4,2.1,1,3.1,2.1c1.7,1.6,3,3.9,2.6,5c-0.3,0.7-1.3,0.7-2.8,0c-1.5-0.7-3.6-2.2-6.1-4.4c0,0.1-0.1,0.2-0.1,0.2
	c1.4,1.4,2.8,2.9,4.2,4.3c1.5,1.5,3,3.1,4.5,4.7c0-0.1,0.1-0.2,0.1-0.3c-0.9-1.2-1.2-2-1.1-2.3c0.1-0.1,0.3-0.2,0.6-0.3
	c1.2,0,1.6-0.3,1.9-0.9c0.4-1-0.1-2.6-1.1-4.3c-1-1.7-2.4-3.6-4.2-5.2C49.8,124.2,48.6,123.3,47.4,122.6z M81.6,30.3
	c0.5,0,0.8-0.4,0.8-0.8c0-0.5-0.4-0.8-0.8-0.8c-0.5,0-0.8,0.4-0.8,0.8C80.8,30,81.1,30.3,81.6,30.3z"/>
</svg>
