<?xml version="1.0" encoding="utf-8"?>
<!-- Generator: Adobe Illustrator 28.0.0, SVG Export Plug-In . SVG Version: 6.00 Build 0)  -->
<svg version="1.1" id="Capa_1" xmlns="http://www.w3.org/2000/svg" xmlns:xlink="http://www.w3.org/1999/xlink" x="0px" y="0px"
	 viewBox="0 0 150 150" style="enable-background:new 0 0 150 150;" xml:space="preserve">
<style type="text/css">
	.st0{fill:#9E804C;}
</style>
<path class="st0" d="M75,5.5c38.3,0,69.5,31.2,69.6,69.5c0,38.4-31.2,69.7-69.6,69.6C36.5,144.5,5.4,113.4,5.5,75
	C5.5,36.6,36.6,5.5,75,5.5z M74.9,139.9c35.8,0.1,64.9-28.9,65-64.8c0.1-35.8-28.9-64.9-64.8-65C39.3,10,10.2,39,10.1,74.9
	C10,110.7,39,139.8,74.9,139.9z M85.2,95.1c0.4-8.1,0.7-14.2,0.9-20.4c0-0.6-0.2-1.4-0.7-1.7c-4.1-2.7-5.6-6.7-5.8-11.4
	c-0.2-5.4,1.1-10.5,3.2-15.4c1.7-4.1,5.3-6.1,9.7-6c4.3,0.1,7.8,2.1,9.4,6.2c2.3,5.5,3.7,11.3,2.9,17.4c-0.5,3.8-2.1,6.8-5.2,8.9
	c-0.9,0.6-1.1,1.2-1.1,2.2c0.6,11.7,1.1,23.5,1.6,35.2c0.1,2,0,3.9-1.3,5.6c-2.1,2.8-5.7,4-9,3c-3.5-1.2-5.5-3.9-5.4-7.6
	C84.8,105.1,85.1,99.1,85.2,95.1z M94.8,91.9C94.7,91.9,94.7,91.9,94.8,91.9c-0.3-6.3-0.6-12.6-0.9-18.9c-0.1-1.8,0.6-2.9,2.2-3.6
	c2.5-1.1,3.8-3.2,4.2-5.9c0.8-5.3-0.6-10.3-2.5-15.1c-0.9-2.3-2.8-3.4-5.2-3.5c-2.4-0.1-4.5,1-5.4,3.2c-1.8,4.4-3.1,8.9-2.8,13.7
	c0.2,3.6,1.5,6.5,5.1,8c1.2,0.5,1.5,1.6,1.5,2.8c-0.3,6.3-0.6,12.6-0.9,18.9c-0.3,6.4-0.6,12.8-0.8,19.2c-0.1,1.3,0.2,2.5,1.5,3.2
	c2.4,1.3,4.9-0.2,4.9-3C95.3,104.5,95,98.2,94.8,91.9z M50.7,91.9c0,0.6-0.1,1.2-0.1,1.9c-0.3,5.8-0.7,11.7-0.8,17.5
	c-0.1,4.4,3.5,7.8,7.8,7.8s7.7-3.5,7.8-7.8c0-1.5-0.1-3-0.2-4.5c-0.6-11.4-1.2-22.7-1.7-34.1c0-0.8,0.4-1.7,0.9-2.3
	c1.4-1.6,3-3.1,4.6-4.6c0.9-0.9,1.3-1.9,1.3-3.2c0-6.4,0-12.7,0-19.1c0-0.4,0-0.7,0-1.1c-0.2-1.3-1-2.1-2.3-2.1s-2.1,0.8-2.3,2.1
	c-0.1,0.5,0,0.9,0,1.4c0,5.5,0,11.1,0,16.6c0,1.4-0.3,2.5-1.4,3.5c-1.5,1.3-3,2.7-4.3,4.3c-0.7,0.8-1.2,2-1.2,3
	c0.4,9.5,0.9,19,1.4,28.5c0.2,3.6,0.4,7.2,0.5,10.9c0.1,2.3-1.3,3.8-3.2,3.8s-3.2-1.5-3.1-3.8c0-0.4,0-0.7,0-1.1
	c0.6-12.6,1.3-25.2,1.9-37.8c0.1-1.5-0.3-2.7-1.4-3.7c-1.6-1.4-3.1-2.9-4.5-4.5c-0.5-0.6-0.9-1.5-0.9-2.3c-0.1-5.9,0-11.9,0-17.8
	c0-1.9-0.9-3-2.4-3c-1.4,0-2.3,1.1-2.3,2.9c0,6.5-0.1,13,0.1,19.6c0,1,0.6,2.1,1.2,2.8c1.4,1.6,3,3.1,4.6,4.6c0.7,0.7,1,1.4,1,2.4
	C51.4,79.1,51.1,85.5,50.7,91.9L50.7,91.9z M115.5,52.4c-1.4-2.5-3.1-4.7-4.8-7c-0.9-1.3-2.2-1.4-3.3-0.6c-1.1,0.8-1.3,2-0.5,3.3
	c0.4,0.6,0.9,1.2,1.3,1.7c9.7,13.6,11.2,28,4.4,43.2c-1.9,4.2-4.7,7.9-7.9,11.3c-1.2,1.2-1.2,2.6-0.2,3.6s2.4,0.8,3.6-0.4
	c8.6-9,13-19.8,13.2-29.9C121.3,67,119.5,59.6,115.5,52.4z M34.7,97.7c2.1,3.5,4.8,6.6,7.3,9.8c0.9,1.2,2.3,1.2,3.3,0.4
	c1-0.9,1.1-2.2,0.1-3.5c-0.4-0.5-0.9-1-1.3-1.5c-9.8-11.3-12.8-24.2-9.3-38.7c1.2-4.9,3.4-9.3,6.3-13.4c1-1.4,0.8-2.8-0.4-3.6
	s-2.5-0.5-3.5,0.9c-5.6,8-8.5,16.9-8.6,25.7C28.7,83,30.5,90.7,34.7,97.7z M75.2,28.7c-0.9,0-1.9,0-2.8,0c-4.5,0.3-8.9,1.2-13.2,2.7
	c-0.2,0.1-0.5,0.2-0.7,0.3c-1.2,0.6-1.7,1.9-1.2,3c0.6,1.2,1.5,1.6,2.8,1.3c3-0.8,6.1-1.7,9.2-2.2c5.1-0.9,10.2-0.4,15.2,0.6
	c1.7,0.4,2.8-0.4,3.1-1.8c0.2-1.3-0.5-2.4-2.1-2.7c-3.4-0.6-6.8-1-10.2-1.5C75.2,28.5,75.2,28.6,75.2,28.7z M56.4,43
	c0-1.7-0.9-2.7-2.3-2.8c-1.4,0-2.3,1-2.4,2.7c0,5.9,0,11.8,0,17.7c0,1.8,0.9,2.7,2.3,2.8c1.5,0,2.3-1,2.4-2.8c0-2.9,0-5.9,0-8.8
	C56.5,48.8,56.5,45.9,56.4,43z M63.4,51.8c0-2.9,0-5.9,0-8.8c0-1.7-1-2.7-2.4-2.7c-1.3,0-2.2,1.1-2.2,2.6c0,0.4,0,0.8,0,1.2
	c0,4.8,0,9.6,0,14.4c0,0.8,0,1.7,0,2.5c0.1,1.4,0.8,2.2,2.2,2.3c1.3,0.1,2.2-0.8,2.4-2.3c0-0.4,0-0.8,0-1.2
	C63.4,57.1,63.4,54.4,63.4,51.8L63.4,51.8z M70.5,116.5c-1.8-0.1-2.8,0.6-3,2c-0.1,1.4,0.8,2.5,2.5,2.6c3.3,0.1,6.7,0.1,10,0
	c1.7-0.1,2.6-1.2,2.4-2.6c-0.2-1.3-1.2-2-2.8-2c-1.5,0.1-3,0.2-4.5,0.2S72,116.6,70.5,116.5z"/>
</svg>
