<?xml version="1.0" encoding="utf-8"?>
<!-- Generator: Adobe Illustrator 28.0.0, SVG Export Plug-In . SVG Version: 6.00 Build 0)  -->
<svg version="1.1" id="Capa_1" xmlns="http://www.w3.org/2000/svg" xmlns:xlink="http://www.w3.org/1999/xlink" x="0px" y="0px"
	 viewBox="0 0 150 150" style="enable-background:new 0 0 150 150;" xml:space="preserve">
<style type="text/css">
	.st0{fill:#9E804C;}
</style>
<path class="st0" d="M136.9,129.9c1.9-2.5,2.8-5,2.9-7.7c0.1-1.9-0.8-2.8-2.7-2.9c-0.4,0-0.8,0-1.3,0c-0.1,0-0.2,0-0.3,0l0-2.8
	c0-2.3,0-4.4,0-6.6c0-2.7-0.7-3.5-3.4-3.5c-1.7,0-3.4,0-5.2,0l-2.1,0c0-0.4,0-0.7,0-1c0-0.9,0-1.8,0-2.6c-0.1-1.8-0.9-2.7-2.7-2.8
	c-0.3,0-0.5,0-0.8-0.1l-0.1,0l0.1-0.2c0.1-0.4,0.2-0.8,0.3-1.2c0.5-1.9,1-3.9,1.5-5.8c1.2-4.9,2.5-9.9,3.7-14.8
	c0.2-1,0.2-1.8-0.2-2.4c-0.3-0.5-0.9-0.9-1.5-1c-1.4-0.3-2.5,0.5-3,2.3c-0.6,2.4-1.2,4.8-1.8,7.2c-0.3,1.3-0.6,2.6-1,3.9
	c-0.6,2.5-1.3,5.1-1.9,7.7l-0.7,2.7c-1.7-4.1-4.4-6.8-8.4-8.3c-0.2-0.1-0.5-0.7-0.5-1.1c0-2.9,0-5.8,0-8.6c0-0.9,0-1.9,0-2.8
	c0-0.6,0-1.3,0-1.9c0-1.6,0-3.3,0-5c0-1.5-0.8-2.4-2.3-2.5c-1.4-0.1-2.4,0.8-2.6,2.4c0,0.4,0,0.8,0,1.1c0,0.1,0,0.2,0,0.3
	c0,1.3,0,2.7,0,4c0,4.1,0,8.3,0,12.4c0,1-0.2,1.3-1.2,1.4c-2.9,0.5-5.3,1.8-7.1,4c-0.6,0.7-1.1,0.5-1.8,0.3
	c-0.3-0.1-0.5-0.2-0.8-0.2c-0.1-0.1-0.4-0.7-0.5-1.1c-0.7-5.6-1.3-11.2-2-16.7c-0.3-2.5-0.6-5-0.9-7.4c-0.2-1.7-1.2-2.7-2.7-2.6
	c-0.7,0.1-1.2,0.3-1.6,0.8c-0.5,0.6-0.7,1.4-0.6,2.4c0.3,2.2,0.5,4.4,0.8,6.6c0.3,2.6,0.6,5.1,0.9,7.7c0.3,2.6,0.6,5.2,0.9,7.7
	c0.1,1,0.2,2,0.3,3c-1.8,0.7-3.3,1.8-4.4,3.6c0-3.3-0.1-7.2-0.1-9.9c0-1.1-0.6-2-1.5-2.5c-0.7-0.3-1.6-0.2-2.2,0.3
	c-0.7,0.6-1.1,1.8-1.1,2.7c-0.1,3.5-0.1,7-0.1,10.4c0,1.4,0,2.9,0,4.3c0,0.4,0,0.7-0.1,1.1c0,0.1,0,0.2,0,0.3c-0.3,0-0.5,0-0.8,0
	c-0.8,0-1.5,0-2.2,0l-0.1,0c-0.6,0-1.2,0-1.8,0.2c-2.3,0.7-3.5,2.5-3.5,5.2c0,2.2,0,4.4,0,6.8c0,0.9,0,1.8,0,2.8H67
	c-0.8,0-1.6,0-2.5,0c-1.9,0-3.9,0-5.8,0c-1.1,0-1.8,0.3-2.3,0.8c-0.5,0.5-0.7,1.3-0.6,2.4c0.2,2.5,1,4.8,2.3,6.7
	c0.2,0.2,0.3,0.4,0.4,0.7c-0.4,0-0.7,0.1-1.1,0.1h-9.7c0-0.1-0.1-0.3-0.1-0.4c-0.3-0.8-0.8-1.7-1.5-2.7c-1.7-2.2-4.2-3.3-7.4-3.3
	c-1.3,0-2.6,0-4,0l-1.5,0V79.9l2.5-0.4c0.6-0.1,1.1-0.2,1.7-0.3c7.7-1.5,14.7-6,19.2-12.5c4.9-6.9,6.6-15.2,4.9-23.4
	c-0.2-0.7-0.3-1.5-0.5-2.2c-1.2-5.3-2.7-10.6-4.2-15.8c-0.7-2.5-1.5-5.1-2.2-7.7c-0.6-2.2-1.1-2.5-3.4-2.5c-3.5,0-7,0-10.4,0
	c-9.4,0-19.1,0-28.6,0c-1.9,0-2.9,0.7-3.5,2.5c-2.3,6.7-4.6,13.5-6.8,19.8c-0.4,1.2-0.8,2.5-1.1,3.7c-0.9,4-1.1,8-0.6,12.2
	c0.8,5.9,3.3,11.5,7.4,16.1c4.1,4.7,9.2,7.9,15,9.4c0.5,0.1,1,0.3,1.6,0.4c0.8,0.2,1.6,0.3,2.4,0.5c0.5,0.1,1,0.2,1.6,0.3v43.6
	c-0.7,0-1.4,0-2,0c-1.8,0-3.4-0.1-5.1,0.1c-3.5,0.3-6.4,2.7-7.4,6.2H3.4v5H150v-5H136.9z M21.9,73.4c-7-2.4-12-7.4-15-14.7
	c0,0,0,0,0,0c0,0,0,0,0-0.1c-0.2-0.5-0.4-0.9-0.5-1.4c-0.1-0.3-0.2-0.6-0.3-0.9c-0.9-2.8-1.1-5.1-1.1-6.3c0-0.4,0-0.7,0-0.8
	c0,0,0,0,0-0.1c0-0.3,0-0.6,0.1-1c0-0.5,0.1-1,0.1-1.7v0c0.1-1.6,0.4-3.3,1-5.3c0.2-0.6,0.3-1.1,0.5-1.8c1.2-3.6,2.5-7.3,3.7-10.9
	c0.8-2.5,1.7-5,2.6-7.5c0.3-0.8,0.6-1.1,1.4-1.1c0,0,0,0,0,0c11.7,0,23.5,0,34.9,0c0,0,0,0,0,0c0.7,0,1,0,1.2,0.7
	c1.1,4.3,2.3,8.4,3.5,12.9l1.1,4.1l1,3.6l0.3,1.1c2.1,10.6-0.3,19-7.2,25.5C41.5,75,32.1,77,21.9,73.4z M19.2,129.9
	c0.6-0.9,1.5-1.4,2.7-1.4c5.3-0.1,10.9-0.1,17.7,0c1.1,0,1.9,0.5,2.7,1.4H19.2z M125,111.3h5.6v7.8H125V111.3z M114.3,104.9h5.5v5.5
	h-5.5V104.9z M119.8,115.6v3.5H90.7v-3.5H119.8z M105.8,94.3c3,0.6,5.1,2.4,6.2,5.5c-2.4,0.6-2.8,1.2-2.8,3.7c0,0.4,0,0.8,0,1.2
	c0,0.9,0,1.8,0.1,2.8c0.1,1.1-0.3,1.7-1.5,2.3c-2.6,1.1-5.1,1-7.6-0.2c2-4.6,1.4-8.8-1.9-12.7C100.3,94.6,102.8,93.8,105.8,94.3z
	 M90.2,98.4C90.3,98.4,90.3,98.4,90.2,98.4c1.7,0,3.2,0.6,4.3,1.8c1.2,1.2,1.8,2.7,1.8,4.4c0,3.4-2.7,6-6.1,6c0,0,0,0,0,0
	c-3.3,0-6.1-2.7-6.1-6C84.2,101.2,86.9,98.4,90.2,98.4z M73.6,109.1c0.5,0,0.9,0,1.3,0c1.7,0,3.4,0,5.1,0c0.1,0,0.3,0.3,0.4,0.4
	c0.1,0.1,0.2,0.3,0.3,0.4c0.4,0.4,0.8,0.8,1.2,1.2c0.9,1,1.9,2,2.9,2.8c0.6,0.5,0.9,0.9,0.9,1.6c0,0.8,0,1.7,0,2.5
	c0,0.3,0,0.6,0,0.9H73.6V109.1z M128.6,129.6c-0.6,0.1-1.1,0.2-1.8,0.2l-58.1,0c-3.9-0.3-6.6-2.4-7.5-5.7h73.2
	C134,126.6,131.4,129,128.6,129.6z M46.5,65c-6.5,6.1-14.6,7.8-23.3,4.8c-5.9-2-10.2-6.3-12.8-12.5c0,0,0,0,0,0c0,0,0,0,0-0.1
	c-0.2-0.4-0.3-0.8-0.5-1.2c-0.1-0.3-0.2-0.5-0.3-0.8c-0.7-2.4-0.9-4.4-1-5.4c0-0.4,0-0.6,0-0.7c0,0,0,0,0,0c0-0.2,0-0.5,0.1-0.8
	c0-0.4,0.1-0.9,0.1-1.4v0C9,45.4,9.2,44,9.7,42.3h42.6l0.3,1C54.4,52.3,52.4,59.4,46.5,65z"/>
</svg>
