<?xml version="1.0" encoding="utf-8"?>
<!-- Generator: Adobe Illustrator 28.0.0, SVG Export Plug-In . SVG Version: 6.00 Build 0)  -->
<svg version="1.1" id="Capa_1" xmlns="http://www.w3.org/2000/svg" xmlns:xlink="http://www.w3.org/1999/xlink" x="0px" y="0px"
	 viewBox="0 0 150 150" style="enable-background:new 0 0 150 150;" xml:space="preserve">
<style type="text/css">
	.st0{fill:#9E804C;}
</style>
<path class="st0" d="M131.9,131.4c-0.6,0-1.1,0-1.7,0c-16.6,0-33.2,0-49.7,0c-0.5,0-0.9,0-1.4,0c-1.2-0.1-2-1.1-1.9-2.2
	c0.1-1.2,0.8-1.9,2-2.1c0.4-0.1,0.9,0,1.4,0c13.4,0,26.7,0,40.1,0c0.5,0,1,0,1.7,0c-1.2-14.7-2.3-29.4-3.5-44
	c-2.4-0.5-4.8,1.2-5.1,3.7c-0.1,1.1-0.1,2.2-0.2,3.2c-0.5,4-3.9,6.9-7.9,6.7c-3.9-0.1-7.2-3.3-7.4-7.3c0-0.6,0-1.3,0-1.9
	c-0.1-2.8-2-4.6-4.8-4.7c-2.8,0-4.8,1.8-4.8,4.6c0,5.4,0,10.8,0,16.3c0,2.7-1,5-3.2,6.7c-1.4,1-2.8,1-3.6-0.1
	c-0.8-1.1-0.5-2.2,1-3.3c1.2-0.9,1.5-2.1,1.5-3.4c0-5.4,0-10.8,0-16.3c0.1-4.1,2.8-7.5,6.7-8.5c4.1-1,8.3,0.6,10.2,4.2
	c0.7,1.3,0.9,2.8,1.2,4.2c0.1,0.6,0,1.4,0.1,2c0.1,1.7,1.5,3,3.2,3.1s3.1-1.1,3.4-2.9c0.1-0.7,0.1-1.4,0.1-2.2
	c0.2-4.9,3.5-8.4,8.4-8.8c0.2,0,0.3-0.1,0.7-0.1c-0.1-1.8-0.2-3.6-0.4-5.4c-0.4-5.5-0.9-11-1.3-16.5c-0.3-4.3-2.6-6.5-7-6.5
	c-19.7,0-39.4,0-59.1,0c-3.4,0-6.1,1.7-6.7,4.4c-0.2,1.1-0.3,2.2-0.4,3.4c-0.1,1.3-0.2,2.7-0.3,4.1c-0.1,1.5-1,2.4-2.3,2.3
	c-1.3,0-2.1-1-2-2.5c0.2-2.5,0.3-5.1,0.6-7.6c0.7-4.8,5.2-8.3,10.5-8.4c5.8-0.1,11.7,0,17.5,0c0.5,0,1,0,1.7,0
	c-0.3-0.4-0.5-0.7-0.8-1c-7.6-9.3-2.5-22.8,9.3-24.8c0.6-0.1,1.3-0.6,1.7-1.1c4.1-5.2,9.1-9.2,15.7-10.6c1.2-0.3,2.5-0.4,3.8-0.4
	c1.5-0.1,2.5,0.8,2.5,2c0.1,1.3-0.9,2.2-2.5,2.3c-6.3,0.2-10.9,3.4-15,8c11.6,3.5,14.5,17.4,6.7,25.6c0.7,0,1.1,0,1.6,0
	c5.9,0,11.7,0,17.6,0c2.7,0,5.2,0.8,7.3,2.5c2.1,1.7,3.4,3.8,3.6,6.6c0.8,9.9,1.6,19.9,2.4,29.8c0.9,10.8,1.7,21.5,2.6,32.3
	c0.3,3.3,0.5,6.7,0.8,10.2c2.3,0,4.6,0,6.8,0c2.5,0,3.2,0.8,3,3.3c-0.4,6.4-5.8,11.6-12.2,11.9c-0.6,0-1.2,0-1.8,0
	c-30.9,0-61.7,0-92.6,0c-5.1,0-7.9-2.3-8.8-7.3c-1.6-9.7-3.2-19.5-4.8-29.3c-0.1-0.7-0.4-1.4-0.7-2C9.5,92,15,77.7,26.9,73.9
	c3.1-1,5.6-2.4,8.1-4.5c8.1-6.9,20.3-5.7,27.2,2.4c0.4,0.5,1.1,1,1.7,1.1c14.2,2,21.5,17.4,15.6,30.4c-1.1,2.4-1.4,5.3-1.8,8
	c-1.4,8.2-2.7,16.4-4,24.6c-0.1,0.7-0.3,1.3-0.5,2c0.3,0,0.6,0.1,0.8,0.1c16.4,0,32.9,0,49.3,0c3.8,0,7-2.4,8.1-5.9
	C131.8,131.8,131.9,131.7,131.9,131.4z M37.9,73c1.1,0.4,2.3,0.7,3.2,1.2c0.6,0.3,1.2,1,1.4,1.7c0.4,1.7-1.3,2.9-3,2.3
	c-2.1-0.8-4.3-1.2-6.6-1.1c-11.5,0.7-18.2,13.2-13.5,23.7c0.2,0.4,0.9,0.9,1.4,0.9c18,0,36,0,53.9,0c0.5,0,1.2-0.4,1.4-0.9
	c2.9-5.9,1.7-13.5-2.7-18.6c-3.8-4.2-11.2-6.8-17.4-4c-1.3,0.6-2.5,0.1-3-1.1s0-2.3,1.5-2.9c1-0.4,2-0.8,3-1.1
	C52.7,68.1,43.1,68,37.9,73z M74.4,106.2c-17.8,0-35.6,0-53.4,0c0.3,1.9,0.6,3.7,0.9,5.6c1.3,7.7,2.5,15.3,3.8,23
	c0.3,1.8,1.5,3,3.1,3.1c1.5,0.1,3,0,4.5,0c-0.3-2.4-0.6-4.8-1-7.1c-0.9-6.8-1.9-13.7-2.8-20.5c-0.2-1.6,0.5-2.6,1.9-2.8
	c1.4-0.1,2.2,0.6,2.5,2.2c0.5,3.9,1.1,7.9,1.6,11.8c0.7,5.4,1.5,10.8,2.2,16.3c2.6,0,5.2,0,7.9,0c0-0.6,0-1.1,0-1.7
	c0-8.6,0-17.2,0-25.8c0-0.6,0-1.2,0.2-1.7c0.3-1,1.1-1.5,2.2-1.4c1.1,0.1,1.7,0.7,1.9,1.8c0.1,0.4,0,0.9,0,1.4c0,8.6,0,17.3,0,25.9
	c0,0.5,0,1,0,1.5c2.7,0,5.3,0,7.8,0c0.1-0.3,0.2-0.5,0.2-0.7c0.9-7,1.9-14,2.8-20.9c0.3-2.2,0.6-4.5,0.9-6.7c0.2-1.2,0.9-2,2.2-2
	c1.1,0,1.9,0.6,2.1,1.7c0.1,0.5,0,1.1,0,1.6c-0.8,5.6-1.5,11.3-2.3,16.9c-0.5,3.3-0.9,6.7-1.4,10.2c1.3,0,2.5,0,3.6,0
	c2.5,0,3.7-1.1,4.1-3.6c0.8-4.8,1.5-9.5,2.3-14.3C72.9,115.4,73.7,110.8,74.4,106.2z M69.3,34.8c0,6,4.8,10.9,10.8,10.9
	S91,40.8,91,34.8C90.9,28.9,86,24,80,24C74.1,24,69.3,28.9,69.3,34.8z"/>
</svg>
